<svg xmlns="http://www.w3.org/2000/svg" fill="none" viewBox="0 0 512 512"><path fill="#fff" d="M0 0h512v512H0z"/><mask id="a" width="396" height="343" x="59" y="85" maskUnits="userSpaceOnUse" style="mask-type:alpha"><path fill="#647F94" d="M406.901 108.115c-17.931-14.806-40.926-22.951-64.757-22.951-27.571 0-54.235 10.96-73.177 30.084-4.402 4.447-8.442 9.339-12.181 14.762C237.432 101.954 206.18 85 172.511 85c-6.179 0-12.437.561-18.603 1.693-31.861 5.79-56.903 23.323-74.436 52.077-25.104 41.218-27.097 79.285-6.104 116.371 11.248 19.862 25.895 39.296 44.803 59.405 34.761 36.945 75.912 72.019 129.541 110.4 2.864 2.029 5.905 3.054 9.038 3.054 4.844 0 8.115-2.453 9.998-3.867 47.649-34.001 86.763-66.769 119.575-100.195 18.439-18.81 39.353-41.908 54.632-70.644 6.422-12.093 13.732-28.34 13.312-46.69-.959-40.18-16.896-73.31-47.366-98.489Z"/></mask><g mask="url(#a)"><path fill="#FFD74B" d="M406.901 108.115c-17.931-14.806-40.926-22.951-64.757-22.951-27.571 0-54.235 10.96-73.177 30.084-4.402 4.447-8.442 9.339-12.181 14.762C237.432 101.954 206.18 85 172.511 85c-6.179 0-12.437.561-18.603 1.693-31.861 5.79-56.903 23.323-74.436 52.077-25.104 41.218-27.097 79.285-6.104 116.371 11.248 19.862 25.895 39.296 44.803 59.405 34.761 36.945 75.912 72.019 129.541 110.4 2.864 2.029 5.905 3.054 9.038 3.054 4.844 0 8.115-2.453 9.998-3.867 47.649-34.001 86.763-66.769 119.575-100.195 18.439-18.81 39.353-41.908 54.632-70.644 6.422-12.093 13.732-28.34 13.312-46.69-.959-40.18-16.896-73.31-47.366-98.489Z"/><path fill="#63A1FF" d="M177.5 232c-59.5-7.286-148.833 16-165 20L43 59l128-12.5L409 33c35.5 68.833 105 174 37.5 214.5-60.835 36.501-220-9.5-269-15.5Z"/></g></svg>
